<svg id="svg" version="1.1" xmlns="http://www.w3.org/2000/svg" xmlns:xlink="http://www.w3.org/1999/xlink" width="400" height="274.80916030534354" viewBox="0, 0, 400,274.80916030534354"><g id="svgg"><path id="path0" d="M0.000 103.797 L 0.000 207.595 0.619 207.509 L 1.237 207.423 1.307 240.111 C 1.357 263.712,1.462 272.902,1.684 273.169 C 1.941 273.479,26.078 273.540,149.144 273.540 L 296.297 273.540 297.941 271.890 C 299.342 270.485,299.732 270.241,300.574 270.241 C 301.552 270.241,303.468 269.521,303.830 269.017 C 304.480 268.113,313.527 268.184,314.227 269.099 C 314.517 269.478,316.478 270.241,317.163 270.241 C 318.127 270.241,320.037 271.484,320.814 272.618 L 321.445 273.540 360.448 273.540 L 399.450 273.540 399.450 246.598 C 399.450 231.780,399.395 219.656,399.327 219.656 C 399.204 219.656,395.206 221.566,386.804 225.641 C 384.309 226.850,379.698 229.085,376.557 230.606 L 370.847 233.372 333.135 214.577 C 303.806 199.960,295.360 195.860,295.135 196.132 C 294.550 196.838,250.154 219.871,248.960 220.088 C 248.568 220.159,248.247 220.119,248.247 220.000 C 248.247 219.723,251.407 217.936,260.893 212.847 C 264.144 211.103,267.794 209.140,269.003 208.484 C 270.213 207.828,276.303 204.600,282.536 201.309 C 288.769 198.019,293.872 195.265,293.876 195.189 C 293.880 195.113,277.862 187.040,258.282 177.248 C 238.701 167.455,222.680 159.337,222.680 159.206 C 222.680 157.935,216.702 155.028,321.201 207.108 C 348.397 220.663,370.738 231.753,370.848 231.753 C 371.024 231.753,374.462 230.106,394.708 220.323 L 399.450 218.032 399.450 203.861 C 399.450 196.068,399.374 189.691,399.281 189.691 C 399.188 189.691,392.671 192.903,384.797 196.830 L 370.482 203.969 340.226 188.846 C 323.585 180.528,309.875 173.628,309.759 173.511 C 309.643 173.395,309.580 167.849,309.619 161.187 L 309.691 149.073 340.004 164.141 L 370.317 179.209 379.966 174.357 C 385.273 171.689,389.478 169.459,389.309 169.403 C 389.141 169.347,388.994 169.033,388.982 168.706 C 388.970 168.378,388.898 168.265,388.821 168.454 C 388.657 168.861,387.629 168.920,387.629 168.522 C 387.629 168.371,387.381 168.247,387.079 168.247 C 386.471 168.247,386.334 167.822,386.873 167.605 C 387.062 167.528,386.753 167.456,386.186 167.444 C 385.619 167.432,385.155 167.299,385.155 167.148 C 385.155 166.997,384.960 166.873,384.723 166.873 C 384.183 166.873,383.607 166.313,383.429 165.616 C 383.312 165.156,383.290 165.168,383.262 165.704 C 383.232 166.295,382.680 166.620,382.680 166.048 C 382.680 165.897,382.433 165.773,382.131 165.773 C 381.828 165.773,381.581 165.649,381.581 165.498 C 381.581 165.347,381.271 165.223,380.893 165.223 C 380.466 165.223,380.206 165.068,380.206 164.811 C 380.206 164.582,379.962 164.399,379.656 164.399 C 379.354 164.399,379.107 164.275,379.107 164.124 C 379.107 163.973,378.859 163.849,378.557 163.849 C 378.176 163.849,378.000 163.658,377.985 163.230 C 377.973 162.890,377.901 162.766,377.825 162.955 C 377.660 163.363,376.632 163.422,376.632 163.024 C 376.632 162.873,376.385 162.749,376.082 162.749 C 375.777 162.749,375.533 162.566,375.533 162.337 C 375.533 162.080,375.273 161.924,374.845 161.924 C 374.467 161.924,374.158 161.801,374.158 161.649 C 374.158 161.498,373.964 161.375,373.726 161.375 C 373.187 161.375,372.610 160.814,372.433 160.118 C 372.315 159.658,372.293 159.669,372.266 160.206 C 372.235 160.796,371.684 161.122,371.684 160.550 C 371.684 160.399,371.436 160.275,371.134 160.275 C 370.832 160.275,370.584 160.151,370.584 160.000 C 370.584 159.849,370.275 159.725,369.897 159.725 C 369.469 159.725,369.210 159.569,369.210 159.313 C 369.210 159.084,368.965 158.900,368.660 158.900 C 368.357 158.900,368.110 158.777,368.110 158.625 C 368.110 158.474,367.863 158.351,367.560 158.351 C 367.180 158.351,367.004 158.160,366.989 157.732 C 366.977 157.392,366.905 157.268,366.828 157.457 C 366.664 157.864,365.636 157.924,365.636 157.526 C 365.636 157.375,365.388 157.251,365.086 157.251 C 364.336 157.251,364.388 156.768,365.155 156.620 C 365.495 156.555,365.186 156.484,364.467 156.464 C 363.749 156.443,363.162 156.302,363.162 156.151 C 363.162 156.000,362.967 155.876,362.730 155.876 C 362.190 155.876,361.614 155.316,361.436 154.620 C 361.319 154.159,361.297 154.171,361.269 154.708 C 361.239 155.298,360.687 155.624,360.687 155.052 C 360.687 154.900,360.440 154.777,360.137 154.777 C 359.835 154.777,359.588 154.653,359.588 154.502 C 359.588 154.351,359.278 154.227,358.900 154.227 C 358.473 154.227,358.213 154.071,358.213 153.814 C 358.213 153.585,357.969 153.402,357.663 153.402 C 357.361 153.402,357.113 153.278,357.113 153.127 C 357.113 152.976,356.866 152.852,356.564 152.852 C 356.261 152.852,356.014 152.729,356.014 152.577 C 356.014 152.426,355.704 152.302,355.326 152.302 C 354.948 152.302,354.639 152.179,354.639 152.027 C 354.639 151.876,354.392 151.753,354.089 151.753 C 353.784 151.753,353.540 151.569,353.540 151.340 C 353.540 151.084,353.280 150.928,352.852 150.928 C 352.474 150.928,352.165 150.804,352.165 150.653 C 352.165 150.502,351.918 150.378,351.615 150.378 C 351.313 150.378,351.065 150.254,351.065 150.103 C 351.065 149.952,350.756 149.828,350.378 149.828 C 350.000 149.828,349.691 149.704,349.691 149.553 C 349.691 149.402,349.443 149.278,349.141 149.278 C 348.838 149.278,348.591 149.155,348.591 149.003 C 348.591 148.852,348.282 148.729,347.904 148.729 C 347.476 148.729,347.216 148.573,347.216 148.316 C 347.216 148.087,346.972 147.904,346.667 147.904 C 346.364 147.904,346.117 147.780,346.117 147.629 C 346.117 147.478,345.869 147.354,345.567 147.354 C 345.265 147.354,345.017 147.230,345.017 147.079 C 345.017 146.928,344.708 146.804,344.330 146.804 C 343.952 146.804,343.643 146.680,343.643 146.529 C 343.643 146.378,343.395 146.254,343.093 146.254 C 342.343 146.254,342.395 145.771,343.162 145.624 C 343.502 145.558,343.192 145.488,342.474 145.467 C 341.756 145.446,341.168 145.306,341.168 145.155 C 341.168 145.003,340.921 144.880,340.619 144.880 C 340.316 144.880,340.069 144.756,340.069 144.605 C 340.069 144.454,339.759 144.330,339.381 144.330 C 339.003 144.330,338.694 144.206,338.694 144.055 C 338.694 143.904,338.447 143.780,338.144 143.780 C 337.842 143.780,337.595 143.656,337.595 143.505 C 337.595 143.354,337.285 143.230,336.907 143.230 C 336.480 143.230,336.220 143.074,336.220 142.818 C 336.220 142.589,335.976 142.405,335.670 142.405 C 335.368 142.405,335.120 142.282,335.120 142.131 C 335.120 141.979,334.873 141.856,334.570 141.856 C 334.268 141.856,334.021 141.732,334.021 141.581 C 334.021 141.430,333.711 141.306,333.333 141.306 C 332.955 141.306,332.646 141.182,332.646 141.031 C 332.646 140.880,332.399 140.756,332.096 140.756 C 331.791 140.756,331.546 140.573,331.546 140.344 C 331.546 140.087,331.287 139.931,330.859 139.931 C 330.481 139.931,330.172 139.817,330.172 139.677 C 330.172 139.536,329.989 139.382,329.765 139.333 C 329.370 139.247,335.858 135.724,344.880 131.126 C 347.299 129.893,353.794 126.581,359.313 123.766 C 368.384 119.138,369.479 118.647,370.722 118.648 C 371.970 118.650,373.332 119.275,385.537 125.442 C 392.929 129.177,399.084 132.234,399.214 132.234 C 399.344 132.234,399.450 125.445,399.450 117.149 L 399.450 102.063 386.142 95.430 C 378.823 91.782,372.682 88.797,372.496 88.797 C 372.310 88.797,369.917 89.959,367.179 91.378 C 364.440 92.797,359.973 95.102,357.251 96.500 C 354.529 97.898,350.694 99.876,348.729 100.897 C 339.812 105.527,325.854 112.440,325.424 112.440 C 324.608 112.440,324.900 112.018,326.117 111.440 C 326.759 111.134,328.770 110.078,330.584 109.091 C 332.399 108.105,338.337 104.973,343.780 102.132 C 367.397 89.803,370.458 88.194,370.650 88.008 C 370.878 87.789,319.447 61.856,318.785 61.856 C 318.553 61.856,317.217 62.459,315.814 63.196 C 295.768 73.737,270.903 86.320,270.117 86.322 C 269.124 86.324,270.499 85.496,278.042 81.544 C 279.572 80.742,285.897 77.426,292.096 74.175 C 298.296 70.924,306.427 66.692,310.165 64.770 C 313.904 62.847,317.016 61.189,317.081 61.084 C 317.146 60.979,313.548 59.038,309.085 56.770 C 300.716 52.516,297.808 50.878,298.603 50.866 C 299.255 50.856,300.410 51.385,309.919 56.049 C 314.581 58.336,318.538 60.206,318.712 60.206 C 318.887 60.206,323.076 58.165,328.022 55.670 C 336.570 51.358,338.737 50.427,337.440 51.627 C 337.147 51.898,333.176 54.092,328.615 56.503 C 324.054 58.914,320.388 60.991,320.467 61.119 C 320.546 61.248,324.340 63.184,328.897 65.422 C 333.454 67.660,345.153 73.464,354.895 78.320 L 372.609 87.148 379.638 83.468 C 387.198 79.510,397.825 74.019,398.829 73.551 L 399.446 73.265 399.448 46.117 L 399.450 18.969 200.275 18.969 C 67.675 18.969,1.100 18.877,1.100 18.694 C 1.100 18.511,67.675 18.419,200.275 18.419 L 399.450 18.419 399.450 9.210 L 399.450 0.000 199.725 0.000 L 0.000 0.000 0.000 103.797 M17.616 6.852 C 19.285 8.521,18.287 10.997,15.945 10.997 C 14.421 10.997,13.471 10.067,13.471 8.575 C 13.471 6.217,15.950 5.187,17.616 6.852 M27.195 6.760 C 27.877 7.334,28.041 7.682,28.041 8.559 C 28.041 10.864,25.550 11.846,23.896 10.193 C 21.696 7.993,24.810 4.753,27.195 6.760 M37.092 6.760 C 38.889 8.272,37.842 10.997,35.464 10.997 C 33.940 10.997,32.990 10.067,32.990 8.575 C 32.990 6.281,35.305 5.256,37.092 6.760 M395.876 76.597 C 393.986 77.580,389.162 80.070,385.155 82.130 C 381.148 84.190,377.035 86.326,376.015 86.877 L 374.161 87.879 386.702 94.123 C 393.600 97.557,399.291 100.319,399.349 100.261 C 399.408 100.203,399.424 94.452,399.384 87.481 L 399.313 74.808 395.876 76.597 M223.780 95.930 C 239.613 98.395,244.779 99.245,248.385 99.976 C 250.351 100.374,252.193 100.722,252.479 100.749 C 252.858 100.784,253.027 101.055,253.098 101.739 C 253.155 102.289,253.424 102.837,253.745 103.058 C 254.101 103.301,254.296 103.744,254.296 104.308 C 254.296 104.789,254.398 105.300,254.523 105.443 C 254.648 105.587,254.917 106.261,255.122 106.942 C 255.327 107.622,255.600 108.320,255.729 108.493 C 255.859 108.666,255.940 108.914,255.910 109.043 C 255.810 109.470,256.275 110.790,256.525 110.790 C 256.659 110.790,256.770 111.030,256.770 111.324 C 256.770 111.617,256.893 111.934,257.045 112.027 C 257.196 112.121,257.320 112.491,257.320 112.849 C 257.320 113.207,257.487 113.668,257.692 113.872 C 257.897 114.077,258.048 114.612,258.029 115.060 C 258.010 115.509,258.157 116.077,258.356 116.323 C 258.554 116.569,258.697 116.878,258.673 117.010 C 258.551 117.676,258.736 118.213,259.087 118.213 C 259.342 118.213,259.598 118.766,259.820 119.794 C 260.007 120.663,260.273 121.524,260.413 121.706 C 260.552 121.889,260.587 122.165,260.490 122.322 C 260.387 122.489,260.485 122.540,260.732 122.445 C 261.065 122.317,261.133 122.485,261.071 123.281 C 261.028 123.828,261.140 124.399,261.321 124.549 C 261.502 124.699,261.649 125.117,261.649 125.478 C 261.649 125.839,261.900 126.403,262.206 126.732 C 262.512 127.060,262.844 127.873,262.943 128.538 C 263.043 129.203,263.221 129.806,263.338 129.879 C 263.830 130.183,263.558 133.593,262.513 140.223 L 262.186 142.301 257.760 143.064 C 247.657 144.807,227.654 148.137,226.191 148.319 C 223.048 148.711,223.099 148.789,222.016 141.856 C 221.627 139.361,220.996 135.340,220.616 132.921 C 220.235 130.502,219.553 126.110,219.100 123.162 C 218.647 120.213,218.023 116.192,217.713 114.227 C 217.403 112.261,216.976 109.540,216.763 108.179 C 216.216 104.680,214.708 94.753,214.708 94.654 C 214.708 94.519,214.757 94.526,223.780 95.930 M201.787 199.630 C 198.547 201.468,194.180 203.792,186.392 207.824 C 181.931 210.133,177.787 212.303,177.182 212.646 C 174.062 214.416,135.690 233.952,135.333 233.952 C 135.291 233.952,135.262 233.797,135.267 233.608 C 135.279 233.147,146.310 227.162,159.175 220.636 C 160.612 219.908,162.158 219.096,162.612 218.831 C 163.902 218.080,182.248 208.661,192.545 203.464 C 197.668 200.878,202.183 198.765,202.579 198.768 C 203.189 198.772,203.069 198.903,201.787 199.630 " stroke="none" fill="#fbfbfb" fill-rule="evenodd"></path><path id="path1" d="M34.414 6.518 C 32.861 7.270,32.574 8.973,33.793 10.193 C 35.904 12.304,39.194 9.507,37.278 7.230 C 36.430 6.223,35.501 5.991,34.414 6.518 M396.338 75.172 C 394.075 76.393,392.965 77.314,394.081 77.045 C 395.042 76.813,399.175 74.403,399.175 74.074 C 399.175 73.856,399.144 73.686,399.107 73.696 C 399.069 73.707,397.823 74.371,396.338 75.172 M371.557 87.681 C 371.322 88.061,372.619 88.644,373.201 88.421 C 373.450 88.325,373.603 88.093,373.541 87.904 C 373.399 87.472,371.797 87.292,371.557 87.681 M377.457 90.457 C 377.457 90.613,378.515 91.263,379.808 91.900 C 381.101 92.537,385.957 94.976,390.598 97.320 C 395.240 99.663,399.130 101.622,399.244 101.672 C 399.357 101.723,399.450 101.537,399.449 101.260 C 399.449 100.777,395.641 98.806,381.006 91.716 C 377.610 90.070,377.457 90.016,377.457 90.457 M294.305 195.173 C 294.201 195.342,292.919 196.099,291.456 196.855 C 289.994 197.612,287.560 198.904,286.048 199.728 C 284.536 200.552,282.443 201.673,281.397 202.220 C 278.695 203.634,277.720 204.674,279.940 203.775 C 282.244 202.842,294.770 196.172,294.912 195.803 C 295.102 195.307,294.566 194.751,294.305 195.173 M370.859 201.700 C 370.859 201.879,371.199 202.077,371.615 202.140 L 372.371 202.254 371.615 202.296 C 371.025 202.328,370.860 202.473,370.863 202.955 C 370.866 203.327,370.949 203.447,371.070 203.255 C 371.182 203.080,371.874 202.632,372.609 202.260 C 373.359 201.879,373.813 201.501,373.645 201.397 C 373.480 201.295,373.095 201.345,372.789 201.509 C 372.484 201.673,372.234 201.709,372.234 201.590 C 372.234 201.472,371.924 201.375,371.546 201.375 C 371.168 201.375,370.859 201.521,370.859 201.700 M70.380 274.366 C 71.382 275.235,399.450 275.233,399.450 274.363 C 399.450 273.813,399.358 273.813,234.599 273.815 C 69.902 273.818,69.749 273.819,70.380 274.366 " stroke="none" fill="#8cabe2" fill-rule="evenodd"></path><path id="path2" d="M318.144 60.663 C 317.671 60.854,317.714 61.214,318.233 61.413 C 318.867 61.656,319.922 61.049,319.419 60.731 C 319.003 60.467,318.673 60.450,318.144 60.663 M399.108 74.089 C 399.036 74.467,399.083 74.777,399.213 74.777 C 399.344 74.777,399.450 74.467,399.450 74.089 C 399.450 73.711,399.403 73.402,399.345 73.402 C 399.287 73.402,399.180 73.711,399.108 74.089 M396.632 74.795 C 396.065 75.095,395.601 75.401,395.601 75.476 C 395.601 75.551,396.096 75.360,396.701 75.052 C 397.306 74.743,397.801 74.431,397.801 74.359 C 397.801 74.179,397.799 74.180,396.632 74.795 M347.354 75.638 C 355.076 79.447,370.997 87.698,371.074 87.930 C 371.128 88.091,370.187 88.718,368.983 89.323 C 367.780 89.928,366.331 90.738,365.765 91.122 C 364.106 92.247,365.468 91.986,367.980 90.696 C 369.186 90.078,370.658 89.322,371.252 89.016 C 372.169 88.545,372.261 88.422,371.864 88.200 C 371.216 87.837,371.559 87.423,372.509 87.423 C 373.409 87.423,373.792 87.832,373.369 88.342 C 373.151 88.604,373.636 88.961,375.396 89.834 C 376.857 90.559,377.652 90.832,377.553 90.576 C 377.465 90.345,377.558 90.166,377.771 90.158 C 377.976 90.151,377.170 89.646,375.979 89.038 C 374.775 88.422,373.921 87.828,374.055 87.699 C 374.187 87.571,377.141 86.019,380.619 84.251 C 388.144 80.424,394.311 77.226,394.502 77.050 C 394.577 76.981,394.392 76.966,394.089 77.019 C 393.743 77.078,393.568 76.978,393.616 76.747 C 393.690 76.392,386.975 79.751,377.704 84.708 C 375.194 86.050,372.948 87.148,372.714 87.148 C 372.479 87.148,367.852 84.967,362.432 82.303 C 349.283 75.838,346.991 74.772,346.294 74.800 C 345.903 74.816,346.259 75.098,347.354 75.638 M396.632 75.756 C 395.612 76.280,394.777 76.770,394.777 76.846 C 394.777 76.921,395.643 76.547,396.701 76.014 C 397.759 75.481,398.625 74.984,398.625 74.911 C 398.625 74.726,398.702 74.694,396.632 75.756 M378.832 90.562 C 378.832 90.788,381.065 91.878,381.217 91.727 C 381.291 91.653,380.877 91.376,380.297 91.111 C 379.718 90.846,379.151 90.581,379.038 90.522 C 378.924 90.463,378.832 90.481,378.832 90.562 M381.185 92.775 C 381.478 92.997,381.842 93.178,381.993 93.178 C 382.144 93.178,382.028 92.997,381.734 92.775 C 381.441 92.553,381.077 92.371,380.926 92.371 C 380.775 92.371,380.891 92.553,381.185 92.775 M384.903 93.573 C 385.186 93.826,386.804 94.570,386.804 94.447 C 386.804 94.289,385.280 93.471,384.985 93.471 C 384.877 93.471,384.840 93.517,384.903 93.573 M390.653 96.346 C 390.653 96.422,391.148 96.736,391.753 97.045 C 392.357 97.353,392.852 97.544,392.852 97.468 C 392.852 97.393,392.357 97.078,391.753 96.770 C 391.148 96.461,390.653 96.271,390.653 96.346 M391.203 97.721 C 391.203 97.796,391.698 98.111,392.302 98.419 C 392.907 98.728,393.402 98.918,393.402 98.843 C 393.402 98.767,392.907 98.453,392.302 98.144 C 391.698 97.836,391.203 97.645,391.203 97.721 M396.701 100.467 C 396.701 100.543,397.072 100.796,397.526 101.031 C 397.979 101.265,398.351 101.396,398.351 101.320 C 398.351 101.244,397.979 100.991,397.526 100.756 C 397.072 100.521,396.701 100.391,396.701 100.467 M217.538 111.203 C 217.616 111.656,218.270 115.543,218.990 119.840 L 220.300 127.652 229.333 136.678 C 236.808 144.149,238.494 145.703,239.114 145.698 C 239.526 145.695,242.027 145.325,244.674 144.876 C 247.320 144.427,249.766 144.059,250.109 144.057 C 250.661 144.055,250.575 143.895,249.373 142.680 C 248.625 141.924,247.942 141.306,247.855 141.306 C 247.626 141.306,246.599 140.243,246.593 140.000 C 246.588 139.757,245.359 138.557,245.116 138.557 C 244.917 138.557,243.849 137.516,243.849 137.323 C 243.849 137.086,242.910 136.082,242.688 136.082 C 242.417 136.082,241.376 135.051,241.370 134.777 C 241.364 134.535,240.137 133.333,239.896 133.333 C 239.616 133.333,238.625 132.400,238.625 132.136 C 238.625 131.999,238.162 131.468,237.595 130.956 C 236.331 129.817,236.369 129.855,235.229 128.591 C 234.718 128.024,234.221 127.560,234.126 127.560 C 233.885 127.560,232.853 126.507,232.847 126.254 C 232.842 126.011,231.613 124.811,231.370 124.811 C 231.127 124.811,230.103 123.749,230.103 123.498 C 230.103 123.276,229.100 122.337,228.863 122.337 C 228.651 122.337,227.629 121.260,227.624 121.031 C 227.619 120.788,226.390 119.588,226.147 119.588 C 225.906 119.588,224.880 118.527,224.880 118.279 C 224.880 118.164,224.437 117.700,223.897 117.248 C 223.356 116.796,222.769 116.263,222.591 116.063 C 222.320 115.758,220.828 114.254,219.794 113.243 C 219.196 112.659,218.378 111.719,217.899 111.065 L 217.396 110.378 217.538 111.203 M254.298 134.296 C 258.455 138.529,261.912 141.957,261.981 141.913 C 262.050 141.869,258.650 138.405,254.424 134.216 L 246.740 126.598 254.298 134.296 M389.691 169.919 C 380.969 174.228,378.542 175.519,382.243 173.883 C 383.782 173.202,383.872 173.195,391.479 173.205 L 399.160 173.215 399.245 176.986 C 399.293 179.141,399.347 177.930,399.369 174.158 C 399.391 170.529,399.326 167.052,399.224 166.431 L 399.038 165.302 389.691 169.919 M250.449 172.715 C 250.450 172.904,277.514 186.580,310.592 203.106 L 370.733 233.154 373.339 231.936 C 374.772 231.266,380.399 228.524,385.842 225.842 C 391.285 223.159,396.265 220.736,396.909 220.457 C 398.180 219.906,399.510 218.832,398.923 218.832 C 398.727 218.832,397.807 219.191,396.878 219.631 C 394.122 220.934,377.014 229.100,373.803 230.644 L 370.836 232.071 359.782 226.576 C 353.703 223.554,329.801 211.655,306.667 200.135 C 246.442 170.146,250.445 172.098,250.449 172.715 M370.693 183.093 C 370.693 185.285,370.736 186.182,370.788 185.086 C 370.840 183.990,370.840 182.196,370.788 181.100 C 370.736 180.003,370.693 180.900,370.693 183.093 M286.667 199.195 C 285.639 199.753,285.701 199.985,286.735 199.450 C 287.189 199.216,287.560 198.965,287.560 198.893 C 287.560 198.716,287.531 198.726,286.667 199.195 M282.543 201.394 C 281.515 201.952,281.578 202.184,282.612 201.649 C 283.065 201.415,283.436 201.164,283.436 201.093 C 283.436 200.916,283.407 200.926,282.543 201.394 M275.876 205.021 C 266.851 209.918,265.955 210.452,266.354 210.698 C 266.510 210.794,269.852 209.233,273.782 207.228 C 280.414 203.845,282.229 202.820,279.767 203.849 C 279.215 204.080,278.763 204.153,278.763 204.013 C 278.763 203.872,278.918 203.702,279.107 203.634 C 279.296 203.567,279.388 203.448,279.313 203.371 C 279.237 203.294,277.691 204.036,275.876 205.021 M0.344 208.017 C -0.339 208.292,-0.135 231.753,0.550 231.753 C 1.091 231.753,1.100 231.569,1.100 219.794 C 1.100 213.216,1.007 207.845,0.893 207.857 C 0.780 207.869,0.533 207.941,0.344 208.017 M0.005 258.452 L -0.009 273.055 0.588 273.572 C 0.915 273.857,1.505 274.108,1.898 274.131 C 2.290 274.154,2.787 274.186,3.002 274.201 C 3.216 274.217,3.443 274.383,3.506 274.572 C 3.596 274.842,8.574 274.909,27.033 274.892 C 39.911 274.880,50.292 274.808,50.103 274.732 C 49.516 274.495,49.724 274.131,50.515 274.011 C 50.931 273.948,40.177 273.878,26.618 273.856 C 4.607 273.819,1.917 273.768,1.532 273.382 C 1.150 273.001,1.100 271.301,1.100 258.835 C 1.100 247.800,1.025 244.689,0.756 244.581 C 0.481 244.470,0.481 244.438,0.756 244.420 C 1.326 244.384,1.142 243.849,0.559 243.849 C 0.028 243.849,0.018 244.119,0.005 258.452 M88.316 273.745 C 90.849 273.791,94.993 273.791,97.526 273.745 C 100.058 273.700,97.986 273.663,92.921 273.663 C 87.856 273.663,85.784 273.700,88.316 273.745 M260.137 273.729 C 260.402 273.798,260.835 273.798,261.100 273.729 C 261.364 273.660,261.148 273.603,260.619 273.603 C 260.089 273.603,259.873 273.660,260.137 273.729 M286.529 273.746 C 298.890 273.785,319.117 273.785,331.478 273.746 C 343.838 273.706,333.725 273.674,309.003 273.674 C 284.282 273.674,274.168 273.706,286.529 273.746 M356.632 273.729 C 356.897 273.798,357.330 273.798,357.595 273.729 C 357.859 273.660,357.643 273.603,357.113 273.603 C 356.584 273.603,356.368 273.660,356.632 273.729 " stroke="none" fill="#b8c4f6" fill-rule="evenodd"></path><path id="path3" d="M215.269 96.299 C 215.385 96.936,215.547 97.890,215.630 98.419 C 215.810 99.570,217.425 109.279,217.589 110.196 C 217.652 110.549,217.865 111.042,218.062 111.290 C 218.449 111.780,219.524 112.984,219.911 113.361 C 220.827 114.253,222.322 115.760,222.591 116.063 C 222.769 116.263,223.356 116.796,223.897 117.248 C 224.437 117.700,224.880 118.164,224.880 118.279 C 224.880 118.546,225.914 119.586,226.186 119.592 C 226.429 119.598,227.629 120.826,227.629 121.070 C 227.629 121.268,228.669 122.337,228.863 122.337 C 229.100 122.337,230.103 123.276,230.103 123.498 C 230.103 123.769,231.134 124.809,231.409 124.816 C 231.652 124.821,232.852 126.050,232.852 126.293 C 232.852 126.514,233.903 127.560,234.126 127.560 C 234.221 127.560,234.718 128.024,235.229 128.591 C 236.369 129.855,236.331 129.817,237.595 130.956 C 238.162 131.468,238.625 131.999,238.625 132.136 C 238.625 132.400,239.616 133.333,239.896 133.333 C 240.137 133.333,241.364 134.535,241.370 134.777 C 241.376 135.051,242.417 136.082,242.688 136.082 C 242.910 136.082,243.849 137.086,243.849 137.323 C 243.849 137.516,244.917 138.557,245.116 138.557 C 245.359 138.557,246.588 139.757,246.593 140.000 C 246.599 140.250,247.629 141.306,247.868 141.306 C 247.962 141.306,248.575 141.866,249.231 142.551 C 250.130 143.489,250.580 143.766,251.054 143.673 C 251.400 143.606,253.943 143.204,256.703 142.779 C 259.464 142.355,261.691 141.921,261.652 141.815 C 261.528 141.479,215.966 95.641,215.501 95.385 C 215.111 95.171,215.083 95.281,215.269 96.299 M380.756 174.539 C 379.168 175.266,376.312 176.627,374.408 177.564 L 370.946 179.266 370.765 185.073 C 370.571 191.291,370.581 203.981,370.778 202.955 C 370.868 202.491,371.081 202.341,371.634 202.355 C 372.363 202.374,372.364 202.377,371.753 202.672 C 371.412 202.836,371.134 203.077,371.134 203.207 C 371.134 203.338,371.881 203.067,372.794 202.606 C 373.822 202.088,374.381 201.651,374.264 201.460 C 374.140 201.261,374.199 201.230,374.428 201.371 C 374.653 201.511,379.279 199.344,387.105 195.435 L 399.427 189.278 399.438 186.804 C 399.444 185.443,399.368 181.829,399.269 178.772 L 399.089 173.215 391.366 173.216 L 383.643 173.218 380.756 174.539 M372.234 201.590 C 372.234 201.709,372.484 201.673,372.789 201.509 C 373.095 201.345,373.492 201.303,373.673 201.414 C 374.168 201.720,372.634 202.260,371.671 202.119 C 370.685 201.974,370.585 201.375,371.546 201.375 C 371.924 201.375,372.234 201.472,372.234 201.590 M0.000 274.089 L 0.000 274.914 1.810 274.914 C 3.409 274.914,4.429 274.304,3.002 274.201 C 2.787 274.186,2.280 274.154,1.875 274.131 C 1.470 274.108,0.953 273.904,0.727 273.677 C 0.134 273.084,0.000 273.160,0.000 274.089 M50.515 274.007 C 49.678 274.139,49.525 274.490,50.194 274.747 C 50.433 274.839,55.227 274.904,60.847 274.892 C 66.467 274.880,70.911 274.808,70.722 274.732 C 70.226 274.532,70.299 274.149,70.859 274.013 C 71.494 273.860,51.494 273.854,50.515 274.007 " stroke="none" fill="#a8a2f9" fill-rule="evenodd"></path><path id="path4" d="M100.825 18.625 C 155.598 18.664,245.227 18.664,300.000 18.625 C 354.773 18.587,309.959 18.556,200.412 18.556 C 90.866 18.556,46.052 18.587,100.825 18.625 M299.558 51.760 C 300.336 52.247,304.623 54.502,309.085 56.770 C 313.548 59.038,317.146 60.979,317.081 61.084 C 317.016 61.189,313.904 62.847,310.165 64.770 C 306.427 66.692,298.296 70.924,292.096 74.175 C 285.897 77.426,279.572 80.742,278.042 81.544 C 270.499 85.496,269.124 86.324,270.117 86.322 C 270.903 86.320,295.768 73.737,315.814 63.196 C 319.090 61.474,317.319 60.912,332.315 68.434 C 342.628 73.606,345.588 74.980,346.170 74.865 C 346.739 74.752,348.553 75.524,353.980 78.187 C 357.867 80.094,361.090 81.614,361.140 81.563 C 361.191 81.512,352.082 76.926,340.897 71.372 C 329.713 65.817,320.508 61.186,320.442 61.080 C 320.377 60.973,324.054 58.914,328.615 56.503 C 333.176 54.092,337.147 51.898,337.440 51.627 C 338.737 50.427,336.570 51.358,328.022 55.670 C 323.076 58.165,318.887 60.206,318.712 60.206 C 318.538 60.206,314.581 58.336,309.919 56.049 C 305.257 53.763,300.907 51.660,300.252 51.376 C 298.388 50.567,298.000 50.782,299.558 51.760 M319.419 60.731 C 319.724 60.924,319.687 61.032,319.232 61.275 C 318.658 61.583,317.801 61.432,317.801 61.024 C 317.801 60.557,318.845 60.367,319.419 60.731 M345.842 75.183 C 345.842 75.334,347.713 76.315,348.754 76.711 C 350.095 77.220,349.124 76.412,347.569 75.724 C 345.958 75.012,345.842 74.975,345.842 75.183 M394.158 75.894 C 393.289 76.343,392.577 76.771,392.577 76.847 C 392.577 76.922,393.320 76.609,394.227 76.151 C 395.134 75.693,395.876 75.258,395.876 75.185 C 395.876 75.002,395.927 74.981,394.158 75.894 M390.859 77.544 C 390.292 77.844,389.828 78.150,389.828 78.225 C 389.828 78.348,392.000 77.333,392.279 77.080 C 392.596 76.793,391.770 77.064,390.859 77.544 M350.790 77.659 C 350.790 77.880,354.134 79.497,354.282 79.349 C 354.358 79.273,353.669 78.832,352.750 78.369 C 351.062 77.516,350.790 77.418,350.790 77.659 M392.509 78.094 C 391.942 78.394,391.478 78.700,391.478 78.775 C 391.478 78.850,391.973 78.659,392.577 78.351 C 393.182 78.042,393.677 77.730,393.677 77.658 C 393.677 77.478,393.675 77.479,392.509 78.094 M384.811 80.705 C 384.093 81.079,383.505 81.447,383.505 81.522 C 383.505 81.597,384.124 81.345,384.880 80.962 C 385.636 80.579,386.254 80.206,386.254 80.133 C 386.254 79.951,386.279 79.941,384.811 80.705 M356.289 80.405 C 356.289 80.569,359.479 82.201,359.786 82.195 C 360.124 82.187,358.438 81.166,357.311 80.695 C 356.749 80.460,356.289 80.329,356.289 80.405 M385.704 81.649 C 384.873 82.089,384.289 82.454,384.408 82.461 C 384.700 82.479,387.354 81.124,387.354 80.958 C 387.354 80.774,387.392 80.758,385.704 81.649 M381.787 83.591 C 380.615 84.190,379.656 84.742,379.656 84.817 C 379.656 84.893,380.646 84.457,381.856 83.849 C 383.065 83.241,384.055 82.683,384.055 82.609 C 384.055 82.423,384.158 82.379,381.787 83.591 M361.787 83.160 C 361.787 83.344,365.669 85.282,365.792 85.159 C 365.846 85.104,364.968 84.602,363.839 84.044 C 362.710 83.486,361.787 83.088,361.787 83.160 M364.657 83.445 C 364.951 83.667,365.322 83.845,365.482 83.840 C 365.642 83.835,365.533 83.650,365.240 83.428 C 364.946 83.206,364.575 83.028,364.415 83.033 C 364.255 83.038,364.364 83.223,364.657 83.445 M379.038 83.729 C 378.320 84.103,377.732 84.471,377.732 84.546 C 377.732 84.621,378.351 84.369,379.107 83.986 C 379.863 83.603,380.481 83.230,380.481 83.157 C 380.481 82.975,380.506 82.965,379.038 83.729 M374.433 86.186 C 373.450 86.700,372.742 87.127,372.860 87.134 C 373.152 87.153,376.357 85.524,376.357 85.357 C 376.357 85.172,376.422 85.144,374.433 86.186 M369.233 85.603 C 369.513 85.858,372.234 87.143,372.234 87.020 C 372.234 86.865,369.608 85.498,369.310 85.498 C 369.205 85.498,369.170 85.545,369.233 85.603 M367.285 85.903 C 367.285 85.979,368.111 86.457,369.121 86.966 L 370.956 87.891 368.639 89.135 C 367.365 89.819,363.354 91.926,359.725 93.816 C 342.212 102.939,333.600 107.453,330.584 109.092 C 328.770 110.078,326.759 111.134,326.117 111.440 C 324.900 112.018,324.608 112.440,325.424 112.440 C 325.850 112.440,340.208 105.331,348.316 101.105 C 350.055 100.199,354.880 97.722,359.038 95.601 C 365.703 92.202,368.398 90.706,366.598 91.404 C 363.769 92.501,365.264 91.193,368.964 89.332 C 371.607 88.004,371.612 87.945,369.210 86.735 C 368.151 86.202,367.285 85.828,367.285 85.903 M375.707 86.720 C 373.605 87.750,373.607 87.827,375.773 88.917 C 376.851 89.460,377.732 89.842,377.732 89.767 C 377.732 89.691,376.919 89.220,375.926 88.719 L 374.121 87.809 375.532 87.148 C 376.308 86.785,377.004 86.388,377.079 86.268 C 377.266 85.964,377.218 85.980,375.707 86.720 M370.241 89.502 C 369.220 90.026,368.385 90.513,368.385 90.586 C 368.385 90.658,369.313 90.258,370.447 89.697 L 372.509 88.677 374.575 89.699 C 377.304 91.049,377.614 90.991,374.983 89.622 C 372.479 88.320,372.540 88.321,370.241 89.502 M378.282 91.401 C 378.282 91.477,379.024 91.913,379.931 92.371 C 380.838 92.829,381.581 93.142,381.581 93.066 C 381.581 92.991,380.838 92.554,379.931 92.096 C 379.024 91.638,378.282 91.325,378.282 91.401 M381.031 91.401 C 381.031 91.477,381.773 91.913,382.680 92.371 C 383.588 92.829,384.330 93.142,384.330 93.066 C 384.330 92.991,383.588 92.554,382.680 92.096 C 381.773 91.638,381.031 91.325,381.031 91.401 M383.780 94.150 C 383.780 94.226,384.522 94.662,385.430 95.120 C 386.337 95.578,387.079 95.891,387.079 95.815 C 387.079 95.740,386.337 95.303,385.430 94.845 C 384.522 94.387,383.780 94.075,383.780 94.150 M386.529 94.156 C 386.529 94.341,389.312 95.728,389.435 95.605 C 389.492 95.548,388.861 95.170,388.034 94.764 C 387.206 94.359,386.529 94.085,386.529 94.156 M228.347 107.797 C 235.435 114.887,241.257 120.687,241.284 120.687 C 241.506 120.687,240.401 118.964,240.107 118.851 C 239.897 118.770,239.725 118.415,239.725 118.062 C 239.725 117.710,239.599 117.343,239.446 117.248 C 239.292 117.153,239.241 116.955,239.332 116.807 C 239.423 116.660,239.379 116.390,239.235 116.208 C 239.090 116.026,238.886 115.397,238.780 114.812 C 238.674 114.226,238.482 113.545,238.352 113.299 C 237.947 112.532,237.712 111.767,237.770 111.405 C 237.801 111.214,237.636 110.985,237.403 110.895 C 237.170 110.806,237.046 110.625,237.128 110.492 C 237.209 110.360,237.121 109.971,236.930 109.628 C 236.740 109.284,236.615 108.898,236.652 108.768 C 236.690 108.639,236.575 108.358,236.397 108.144 C 236.220 107.930,236.038 107.355,235.995 106.867 C 235.951 106.379,235.721 105.608,235.485 105.155 C 235.248 104.701,235.054 104.112,235.053 103.846 C 235.052 103.580,234.822 103.166,234.542 102.926 C 234.190 102.625,234.056 102.194,234.109 101.533 C 234.168 100.784,234.096 100.610,233.779 100.732 C 233.556 100.817,233.441 100.778,233.523 100.645 C 233.606 100.511,233.498 99.905,233.284 99.298 C 233.069 98.691,232.953 98.135,233.025 98.063 C 233.265 97.823,227.342 96.705,220.344 95.670 C 219.134 95.491,217.540 95.246,216.802 95.126 L 215.459 94.907 228.347 107.797 M389.278 96.896 C 389.278 96.972,389.773 97.286,390.378 97.595 C 390.983 97.903,391.478 98.094,391.478 98.018 C 391.478 97.942,390.983 97.628,390.378 97.320 C 389.773 97.011,389.278 96.820,389.278 96.896 M392.577 97.180 C 392.577 97.368,394.261 98.202,394.386 98.076 C 394.446 98.017,394.063 97.762,393.536 97.511 C 393.009 97.259,392.577 97.110,392.577 97.180 M394.777 99.645 C 394.777 99.721,395.271 100.035,395.876 100.344 C 396.481 100.652,396.976 100.843,396.976 100.767 C 396.976 100.692,396.481 100.377,395.876 100.069 C 395.271 99.760,394.777 99.570,394.777 99.645 M369.347 119.194 C 368.742 119.406,368.216 119.581,368.179 119.583 C 367.784 119.607,368.251 120.412,368.660 120.412 C 368.965 120.412,369.210 120.596,369.210 120.825 C 369.210 121.081,369.469 121.237,369.897 121.237 C 370.275 121.237,370.584 121.361,370.584 121.512 C 370.584 121.663,370.832 121.787,371.134 121.787 C 371.436 121.787,371.684 121.911,371.684 122.062 C 371.684 122.634,372.235 122.308,372.266 121.718 C 372.293 121.181,372.315 121.170,372.433 121.630 C 372.610 122.326,373.187 122.887,373.726 122.887 C 373.964 122.887,374.158 123.010,374.158 123.162 C 374.158 123.313,374.467 123.436,374.845 123.436 C 375.273 123.436,375.533 123.592,375.533 123.849 C 375.533 124.078,375.777 124.261,376.082 124.261 C 376.385 124.261,376.632 124.385,376.632 124.536 C 376.632 124.934,377.660 124.875,377.825 124.467 C 377.901 124.278,377.973 124.402,377.985 124.742 C 378.000 125.170,378.176 125.361,378.557 125.361 C 378.859 125.361,379.107 125.485,379.107 125.636 C 379.107 125.787,379.354 125.911,379.656 125.911 C 379.962 125.911,380.206 126.094,380.206 126.323 C 380.206 126.580,380.466 126.735,380.893 126.735 C 381.271 126.735,381.581 126.859,381.581 127.010 C 381.581 127.162,381.818 127.285,382.108 127.285 C 382.397 127.285,382.697 127.440,382.774 127.629 C 382.884 127.900,382.964 127.901,383.153 127.635 C 383.332 127.382,383.491 127.434,383.784 127.841 C 384.000 128.140,384.396 128.385,384.666 128.385 C 384.935 128.385,385.155 128.509,385.155 128.660 C 385.155 128.811,385.464 128.935,385.842 128.935 C 386.270 128.935,386.529 129.090,386.529 129.347 C 386.529 129.576,386.774 129.759,387.079 129.759 C 387.381 129.759,387.629 129.883,387.629 130.034 C 387.629 130.432,388.657 130.373,388.821 129.966 C 388.898 129.777,388.970 129.900,388.982 130.241 C 388.997 130.669,389.173 130.859,389.553 130.859 C 389.856 130.859,390.103 130.983,390.103 131.134 C 390.103 131.285,390.351 131.409,390.653 131.409 C 390.958 131.409,391.203 131.592,391.203 131.821 C 391.203 132.078,391.462 132.234,391.890 132.234 C 392.268 132.234,392.577 132.357,392.577 132.509 C 392.577 132.660,392.825 132.784,393.127 132.784 C 393.430 132.784,393.677 132.907,393.677 133.058 C 393.677 133.631,394.228 133.305,394.259 132.715 C 394.286 132.178,394.308 132.166,394.426 132.627 C 394.603 133.323,395.180 133.883,395.719 133.883 C 395.957 133.883,396.151 134.007,396.151 134.158 C 396.151 134.309,396.460 134.433,396.838 134.433 C 397.266 134.433,397.526 134.589,397.526 134.845 C 397.526 135.074,397.770 135.258,398.076 135.258 C 398.378 135.258,398.625 135.381,398.625 135.533 C 398.625 135.684,398.749 135.808,398.900 135.808 C 399.052 135.808,399.175 135.091,399.175 134.208 L 399.175 132.607 385.636 125.847 C 371.306 118.691,371.065 118.592,369.347 119.194 M259.931 139.656 C 260.522 140.261,261.067 140.756,261.143 140.756 C 261.218 140.756,260.797 140.261,260.206 139.656 C 259.616 139.052,259.071 138.557,258.995 138.557 C 258.919 138.557,259.341 139.052,259.931 139.656 M222.853 144.983 C 222.909 145.418,222.955 146.060,222.955 146.411 C 222.955 146.761,223.234 147.370,223.574 147.762 L 224.192 148.476 226.392 148.077 C 228.213 147.747,228.389 147.674,227.413 147.654 C 226.486 147.634,226.064 147.454,225.430 146.804 C 224.986 146.351,224.510 145.979,224.371 145.979 C 224.233 145.979,224.054 145.732,223.975 145.430 C 223.896 145.127,223.643 144.880,223.414 144.880 C 223.184 144.880,222.941 144.725,222.874 144.536 C 222.806 144.347,222.797 144.548,222.853 144.983 M309.832 156.779 C 309.834 160.743,309.910 164.265,310.001 164.605 C 310.188 165.299,310.653 165.446,310.653 164.811 C 310.653 164.584,310.777 164.399,310.928 164.399 C 311.079 164.399,311.203 164.584,311.203 164.811 C 311.203 165.038,311.388 165.223,311.615 165.223 C 311.842 165.223,312.027 165.038,312.027 164.811 C 312.027 164.584,312.151 164.399,312.302 164.399 C 312.454 164.399,312.577 164.584,312.577 164.811 C 312.577 165.038,312.701 165.223,312.852 165.223 C 313.003 165.223,313.127 165.038,313.127 164.811 C 313.127 164.584,313.251 164.399,313.402 164.399 C 313.553 164.399,313.677 164.584,313.677 164.811 C 313.677 165.038,313.793 165.223,313.934 165.223 C 314.076 165.223,314.242 165.625,314.303 166.117 C 314.388 166.804,314.424 166.708,314.458 165.704 C 314.496 164.563,315.052 163.728,315.052 164.811 C 315.052 165.038,315.175 165.223,315.326 165.223 C 315.478 165.223,315.601 165.038,315.601 164.811 C 315.601 164.584,315.725 164.399,315.876 164.399 C 316.027 164.399,316.151 164.584,316.151 164.811 C 316.151 165.038,316.275 165.223,316.426 165.223 C 316.577 165.223,316.701 165.038,316.701 164.811 C 316.701 164.584,316.887 164.399,317.113 164.399 C 317.340 164.399,317.526 164.584,317.526 164.811 C 317.526 165.038,317.649 165.223,317.801 165.223 C 317.952 165.223,318.076 165.038,318.076 164.811 C 318.076 164.584,318.199 164.399,318.351 164.399 C 318.502 164.399,318.625 164.584,318.625 164.811 C 318.625 165.038,318.749 165.223,318.900 165.223 C 319.052 165.223,319.175 165.038,319.175 164.811 C 319.175 163.728,319.731 164.563,319.769 165.704 C 319.803 166.708,319.839 166.804,319.924 166.117 C 319.985 165.625,320.151 165.223,320.292 165.223 C 320.434 165.223,320.550 165.038,320.550 164.811 C 320.550 164.584,320.674 164.399,320.825 164.399 C 320.976 164.399,321.100 164.584,321.100 164.811 C 321.100 165.038,321.223 165.223,321.375 165.223 C 321.526 165.223,321.649 165.038,321.649 164.811 C 321.649 164.584,321.773 164.399,321.924 164.399 C 322.076 164.399,322.199 164.584,322.199 164.811 C 322.199 165.038,322.385 165.223,322.612 165.223 C 322.838 165.223,323.024 165.038,323.024 164.811 C 323.024 164.584,323.148 164.399,323.299 164.399 C 323.450 164.399,323.574 164.584,323.574 164.811 C 323.574 165.038,323.698 165.223,323.849 165.223 C 324.000 165.223,324.124 165.038,324.124 164.811 C 324.124 164.584,324.247 164.399,324.399 164.399 C 324.550 164.399,324.674 164.584,324.674 164.811 C 324.674 165.038,324.789 165.223,324.931 165.223 C 325.073 165.223,325.238 165.625,325.299 166.117 C 325.385 166.804,325.420 166.708,325.454 165.704 C 325.493 164.563,326.048 163.728,326.048 164.811 C 326.048 165.038,326.172 165.223,326.323 165.223 C 326.474 165.223,326.598 165.038,326.598 164.811 C 326.598 164.584,326.722 164.399,326.873 164.399 C 327.024 164.399,327.148 164.584,327.148 164.811 C 327.148 165.038,327.271 165.223,327.423 165.223 C 327.574 165.223,327.698 165.038,327.698 164.811 C 327.698 164.584,327.883 164.399,328.110 164.399 C 328.337 164.399,328.522 164.584,328.522 164.811 C 328.522 165.038,328.646 165.223,328.797 165.223 C 328.948 165.223,329.072 165.038,329.072 164.811 C 329.072 164.584,329.196 164.399,329.347 164.399 C 329.498 164.399,329.622 164.584,329.622 164.811 C 329.622 165.038,329.746 165.223,329.897 165.223 C 330.048 165.223,330.172 165.038,330.172 164.811 C 330.172 164.584,330.296 164.399,330.447 164.399 C 330.598 164.399,330.722 164.584,330.722 164.811 C 330.722 165.038,330.907 165.223,331.134 165.223 C 331.361 165.223,331.546 165.038,331.546 164.811 C 331.546 164.584,331.670 164.399,331.821 164.399 C 331.973 164.399,332.096 164.584,332.096 164.811 C 332.096 165.038,332.220 165.223,332.371 165.223 C 332.522 165.223,332.646 165.038,332.646 164.811 C 332.646 164.584,332.770 164.399,332.921 164.399 C 333.072 164.399,333.196 164.584,333.196 164.811 C 333.196 165.038,333.381 165.223,333.608 165.223 C 333.835 165.223,334.021 165.038,334.021 164.811 C 334.021 164.584,334.144 164.399,334.296 164.399 C 334.447 164.399,334.570 164.584,334.570 164.811 C 334.570 165.038,334.694 165.223,334.845 165.223 C 334.997 165.223,335.120 165.038,335.120 164.811 C 335.120 164.584,335.244 164.399,335.395 164.399 C 335.546 164.399,335.670 164.584,335.670 164.811 C 335.670 165.038,335.794 165.223,335.945 165.223 C 336.096 165.223,336.220 165.038,336.220 164.811 C 336.220 164.584,336.405 164.399,336.632 164.399 C 336.859 164.399,337.045 164.584,337.045 164.811 C 337.045 165.038,337.168 165.223,337.320 165.223 C 337.471 165.223,337.595 165.038,337.595 164.811 C 337.595 164.584,337.718 164.399,337.869 164.399 C 338.021 164.399,338.144 164.584,338.144 164.811 C 338.144 165.038,338.268 165.223,338.419 165.223 C 338.570 165.223,338.694 165.038,338.694 164.811 C 338.694 164.584,338.880 164.399,339.107 164.399 C 339.333 164.399,339.519 164.584,339.519 164.811 C 339.519 165.320,339.960 165.355,340.149 164.860 C 340.263 164.564,313.046 150.778,310.354 149.768 C 309.844 149.577,309.828 149.792,309.832 156.779 M222.993 158.698 C 222.821 158.870,222.680 159.108,222.680 159.227 C 222.680 159.454,294.153 195.285,294.305 195.134 C 294.353 195.086,284.509 190.099,272.431 184.053 C 260.281 177.971,250.464 172.897,250.458 172.696 C 250.441 172.159,250.236 172.064,265.812 179.801 C 273.733 183.736,280.258 186.913,280.311 186.860 C 280.363 186.807,269.490 181.340,256.148 174.711 C 242.806 168.081,229.959 161.696,227.598 160.521 C 224.391 158.925,223.227 158.464,222.993 158.698 M340.619 164.898 C 340.619 165.119,344.492 166.940,344.643 166.789 C 344.687 166.745,343.799 166.252,342.671 165.693 C 341.542 165.135,340.619 164.777,340.619 164.898 M347.766 168.382 C 347.766 168.570,349.450 169.405,349.575 169.279 C 349.635 169.220,349.252 168.965,348.725 168.714 C 348.198 168.462,347.766 168.313,347.766 168.382 M312.325 174.673 C 312.608 174.926,314.227 175.670,314.227 175.547 C 314.227 175.388,312.703 174.570,312.408 174.570 C 312.299 174.570,312.262 174.617,312.325 174.673 M363.184 176.048 C 363.467 176.301,365.086 177.044,365.086 176.921 C 365.086 176.763,363.562 175.945,363.267 175.945 C 363.158 175.945,363.121 175.991,363.184 176.048 M280.687 187.078 C 280.687 187.261,285.669 189.749,285.791 189.627 C 285.845 189.573,284.719 188.948,283.288 188.237 C 281.858 187.527,280.687 187.005,280.687 187.078 M286.186 189.827 C 286.186 190.010,290.618 192.223,290.740 192.101 C 290.794 192.047,289.792 191.483,288.512 190.849 C 287.232 190.214,286.186 189.754,286.186 189.827 M291.684 192.576 C 291.684 192.759,296.116 194.972,296.238 194.850 C 296.292 194.796,295.290 194.232,294.010 193.598 C 292.731 192.963,291.684 192.503,291.684 192.576 M295.808 195.875 C 295.808 196.059,299.690 197.996,299.812 197.874 C 299.867 197.819,298.988 197.317,297.860 196.759 C 296.731 196.200,295.808 195.803,295.808 195.875 M298.282 195.872 C 298.282 196.034,300.926 197.390,301.228 197.383 C 301.428 197.379,298.583 195.739,298.375 195.739 C 298.324 195.739,298.282 195.799,298.282 195.872 M294.364 196.446 C 293.337 197.003,293.399 197.236,294.433 196.701 C 294.887 196.466,295.258 196.216,295.258 196.144 C 295.258 195.967,295.228 195.977,294.364 196.446 M301.306 198.624 C 301.306 198.808,304.638 200.470,304.761 200.348 C 304.817 200.292,304.062 199.852,303.084 199.370 C 302.106 198.888,301.306 198.552,301.306 198.624 M303.780 198.620 C 303.780 198.780,305.869 199.863,306.175 199.861 C 306.441 199.859,304.275 198.509,303.986 198.497 C 303.873 198.492,303.780 198.547,303.780 198.620 M192.545 203.464 C 182.248 208.661,163.902 218.080,162.612 218.831 C 162.158 219.096,160.612 219.908,159.175 220.636 C 146.310 227.162,135.279 233.147,135.267 233.608 C 135.262 233.797,135.291 233.952,135.333 233.952 C 135.690 233.952,174.062 214.416,177.182 212.646 C 177.787 212.303,181.931 210.133,186.392 207.824 C 200.233 200.658,203.599 198.775,202.579 198.768 C 202.183 198.765,197.668 200.878,192.545 203.464 M289.141 199.195 C 288.113 199.753,288.176 199.985,289.210 199.450 C 289.663 199.216,290.034 198.965,290.034 198.893 C 290.034 198.716,290.005 198.726,289.141 199.195 M285.292 199.745 C 284.264 200.302,284.327 200.535,285.361 200.000 C 285.814 199.765,286.186 199.515,286.186 199.443 C 286.186 199.266,286.156 199.276,285.292 199.745 M306.804 201.373 C 306.804 201.557,310.137 203.220,310.260 203.097 C 310.315 203.041,309.560 202.601,308.582 202.119 C 307.604 201.637,306.804 201.301,306.804 201.373 M309.278 201.369 C 309.278 201.529,311.368 202.612,311.673 202.610 C 311.939 202.609,309.773 201.258,309.485 201.246 C 309.371 201.241,309.278 201.296,309.278 201.369 M281.168 201.944 C 280.141 202.502,280.203 202.734,281.237 202.199 C 281.691 201.965,282.062 201.714,282.062 201.642 C 282.062 201.466,282.032 201.475,281.168 201.944 M283.368 202.217 C 282.649 202.591,282.062 202.959,282.062 203.034 C 282.062 203.109,282.680 202.857,283.436 202.474 C 284.192 202.091,284.811 201.718,284.811 201.645 C 284.811 201.463,284.836 201.453,283.368 202.217 M276.770 204.280 C 276.203 204.579,275.739 204.886,275.739 204.961 C 275.739 205.036,276.234 204.845,276.838 204.536 C 277.443 204.228,277.938 203.916,277.938 203.843 C 277.938 203.663,277.936 203.664,276.770 204.280 M314.914 204.201 C 315.976 204.828,317.251 205.385,317.251 205.222 C 317.251 205.067,314.605 203.711,314.305 203.712 C 314.186 203.713,314.460 203.933,314.914 204.201 M312.302 204.122 C 312.302 204.307,315.635 205.969,315.758 205.846 C 315.813 205.790,315.058 205.350,314.081 204.868 C 313.103 204.386,312.302 204.050,312.302 204.122 M277.869 205.104 C 277.000 205.552,276.289 205.981,276.289 206.056 C 276.289 206.132,277.031 205.819,277.938 205.361 C 278.845 204.903,279.588 204.468,279.588 204.395 C 279.588 204.211,279.639 204.190,277.869 205.104 M271.001 207.380 C 268.265 208.897,267.894 209.282,270.378 208.027 C 272.123 207.146,273.613 206.204,273.265 206.202 C 273.189 206.202,272.171 206.732,271.001 207.380 M320.137 206.810 C 321.534 207.596,322.749 208.135,322.749 207.971 C 322.749 207.814,319.550 206.184,319.252 206.189 C 319.134 206.191,319.533 206.470,320.137 206.810 M270.851 208.691 C 267.043 210.677,264.417 211.504,267.210 209.838 C 267.839 209.463,268.294 209.096,268.221 209.023 C 268.149 208.950,267.800 209.073,267.447 209.296 C 267.093 209.518,264.144 211.122,260.893 212.859 C 255.333 215.831,254.229 216.433,249.956 218.826 C 248.148 219.839,247.783 220.301,248.958 220.088 C 249.586 219.974,271.167 209.006,274.364 207.175 C 276.938 205.702,274.888 206.587,270.851 208.691 M318.351 207.148 C 318.351 207.301,320.443 208.385,320.738 208.385 C 320.853 208.385,320.703 208.225,320.405 208.029 C 319.697 207.564,318.351 206.987,318.351 207.148 M1.212 212.371 C 1.212 214.942,1.253 216.030,1.304 214.790 C 1.355 213.550,1.355 211.447,1.305 210.117 C 1.254 208.786,1.212 209.801,1.212 212.371 M324.696 209.040 C 324.977 209.296,328.247 210.853,328.247 210.730 C 328.247 210.575,325.071 208.935,324.773 208.935 C 324.668 208.935,324.633 208.982,324.696 209.040 M323.849 209.874 C 323.849 210.114,325.536 210.913,325.699 210.750 C 325.782 210.667,325.505 210.469,325.084 210.309 C 324.664 210.149,324.214 209.952,324.084 209.872 C 323.955 209.792,323.849 209.793,323.849 209.874 M340.893 217.182 C 346.866 220.190,351.876 222.650,352.027 222.650 C 352.179 222.650,347.416 220.190,341.443 217.182 C 335.471 214.175,330.460 211.714,330.309 211.714 C 330.158 211.714,334.921 214.175,340.893 217.182 M329.347 212.623 C 329.347 212.863,331.035 213.662,331.198 213.499 C 331.280 213.416,331.003 213.218,330.583 213.058 C 330.162 212.898,329.712 212.702,329.582 212.622 C 329.453 212.542,329.347 212.542,329.347 212.623 M334.845 215.389 C 334.845 215.495,336.490 216.357,336.691 216.357 C 336.752 216.357,336.733 216.246,336.649 216.110 C 336.494 215.858,334.845 215.200,334.845 215.389 M340.367 218.109 C 340.649 218.362,342.268 219.106,342.268 218.983 C 342.268 218.825,340.744 218.007,340.449 218.007 C 340.341 218.007,340.304 218.053,340.367 218.109 M392.715 221.296 C 389.086 223.088,386.191 224.566,386.281 224.580 C 386.371 224.594,388.350 223.695,390.679 222.582 C 398.023 219.075,398.558 218.832,398.940 218.832 C 399.145 218.832,398.953 219.141,398.514 219.519 C 398.075 219.897,397.590 220.206,397.437 220.206 C 397.284 220.206,397.226 220.273,397.308 220.355 C 397.739 220.786,399.450 219.527,399.450 218.781 C 399.450 218.355,399.419 218.014,399.381 218.022 C 399.344 218.030,396.344 219.503,392.715 221.296 M391.810 222.874 C 389.196 224.166,387.104 225.271,387.162 225.329 C 387.284 225.451,396.976 220.784,396.976 220.603 C 396.976 220.349,396.437 220.586,391.810 222.874 M345.865 220.859 C 346.148 221.112,347.766 221.855,347.766 221.732 C 347.766 221.574,346.242 220.756,345.947 220.756 C 345.839 220.756,345.802 220.802,345.865 220.859 M352.440 222.817 C 352.440 223.000,356.872 225.213,356.994 225.091 C 357.048 225.036,356.046 224.473,354.766 223.838 C 353.487 223.204,352.440 222.744,352.440 222.817 M351.363 223.608 C 351.646 223.861,353.265 224.605,353.265 224.481 C 353.265 224.323,351.741 223.505,351.445 223.505 C 351.337 223.505,351.300 223.551,351.363 223.608 M381.581 226.667 C 380.296 227.332,379.368 227.876,379.519 227.876 C 379.670 227.876,380.845 227.332,382.131 226.667 C 383.416 226.001,384.344 225.457,384.192 225.457 C 384.041 225.457,382.866 226.001,381.581 226.667 M356.312 226.084 C 356.592 226.339,359.313 227.624,359.313 227.501 C 359.313 227.346,356.687 225.979,356.389 225.979 C 356.284 225.979,356.249 226.026,356.312 226.084 M359.038 226.115 C 359.038 226.300,362.370 227.962,362.493 227.839 C 362.549 227.784,361.794 227.344,360.816 226.861 C 359.838 226.379,359.038 226.043,359.038 226.115 M383.162 227.097 C 382.292 227.545,381.581 227.967,381.581 228.034 C 381.581 228.169,384.836 226.664,385.087 226.413 C 385.456 226.044,384.637 226.335,383.162 227.097 M378.832 229.278 C 377.698 229.868,376.893 230.351,377.045 230.351 C 377.196 230.351,378.247 229.868,379.381 229.278 C 380.515 228.689,381.320 228.206,381.168 228.206 C 381.017 228.206,379.966 228.689,378.832 229.278 M361.810 228.833 C 362.090 229.090,365.361 230.647,365.361 230.523 C 365.361 230.369,362.185 228.729,361.886 228.729 C 361.781 228.729,361.747 228.776,361.810 228.833 M364.536 228.865 C 364.536 229.049,367.869 230.711,367.991 230.588 C 368.047 230.533,367.292 230.093,366.314 229.610 C 365.336 229.128,364.536 228.793,364.536 228.865 M374.983 229.828 C 373.849 230.418,373.045 230.901,373.196 230.901 C 373.347 230.901,374.399 230.418,375.533 229.828 C 376.667 229.238,377.471 228.756,377.320 228.756 C 377.168 228.756,376.117 229.238,374.983 229.828 M369.004 232.457 L 370.860 233.410 372.440 232.595 C 373.310 232.146,373.924 231.773,373.805 231.766 C 373.687 231.759,372.976 232.064,372.225 232.444 L 370.860 233.136 369.218 232.307 C 368.315 231.851,367.480 231.484,367.362 231.491 C 367.244 231.499,367.983 231.933,369.004 232.457 M370.214 231.821 C 370.284 231.935,370.575 232.027,370.859 232.027 C 371.144 232.027,371.434 231.935,371.504 231.821 C 371.574 231.708,371.284 231.615,370.859 231.615 C 370.434 231.615,370.144 231.708,370.214 231.821 M1.218 266.254 C 1.218 269.883,1.258 271.330,1.305 269.469 C 1.353 267.608,1.353 264.639,1.305 262.871 C 1.257 261.103,1.218 262.625,1.218 266.254 M5.704 273.745 C 7.708 273.792,10.986 273.792,12.990 273.745 C 14.993 273.698,13.354 273.660,9.347 273.660 C 5.340 273.660,3.701 273.698,5.704 273.745 M34.158 273.746 C 41.832 273.786,54.388 273.786,62.062 273.746 C 69.735 273.705,63.457 273.672,48.110 273.672 C 32.763 273.672,26.485 273.705,34.158 273.746 " stroke="none" fill="#d7dcf9" fill-rule="evenodd"></path><path id="path5" d="M233.540 113.265 C 243.669 123.395,252.019 131.684,252.095 131.684 C 252.170 131.684,243.944 123.395,233.814 113.265 C 223.685 103.134,215.335 94.845,215.259 94.845 C 215.184 94.845,223.410 103.134,233.540 113.265 M219.172 122.062 C 219.172 122.440,219.266 123.120,219.381 123.574 C 219.569 124.310,219.591 124.324,219.591 123.711 C 219.591 123.333,219.497 122.653,219.381 122.199 C 219.194 121.464,219.172 121.449,219.172 122.062 M219.969 126.741 C 219.948 126.970,220.296 129.321,220.743 131.964 C 221.189 134.607,221.751 137.945,221.991 139.381 C 222.800 144.223,222.969 144.880,223.413 144.880 C 223.643 144.880,223.896 145.127,223.975 145.430 C 224.054 145.732,224.233 145.979,224.371 145.979 C 224.510 145.979,224.986 146.351,225.430 146.804 C 226.086 147.476,226.454 147.625,227.413 147.611 C 228.959 147.587,240.404 145.772,239.251 145.734 C 238.211 145.699,220.359 128.176,220.128 126.963 C 220.061 126.611,219.989 126.511,219.969 126.741 M253.459 133.127 C 254.133 133.845,254.721 134.433,254.765 134.433 C 254.972 134.433,254.753 134.186,253.540 133.047 L 252.234 131.821 253.459 133.127 M309.860 168.827 L 309.828 173.392 311.959 174.389 C 313.131 174.938,314.275 175.510,314.502 175.661 C 314.729 175.813,315.904 176.416,317.113 177.003 C 326.453 181.532,370.034 203.542,370.034 203.731 C 370.034 203.862,370.189 203.910,370.378 203.837 C 370.875 203.646,370.733 179.289,370.235 179.344 C 369.911 179.380,368.119 178.512,352.577 170.795 C 348.797 168.918,344.592 166.886,343.231 166.279 C 341.871 165.671,340.656 165.031,340.530 164.855 C 340.359 164.616,340.267 164.622,340.162 164.880 C 339.968 165.358,339.519 165.310,339.519 164.811 C 339.519 164.584,339.333 164.399,339.107 164.399 C 338.880 164.399,338.694 164.584,338.694 164.811 C 338.694 165.038,338.570 165.223,338.419 165.223 C 338.268 165.223,338.144 165.038,338.144 164.811 C 338.144 164.584,338.021 164.399,337.869 164.399 C 337.718 164.399,337.595 164.584,337.595 164.811 C 337.595 165.038,337.471 165.223,337.320 165.223 C 337.168 165.223,337.045 165.038,337.045 164.811 C 337.045 164.584,336.859 164.399,336.632 164.399 C 336.405 164.399,336.220 164.584,336.220 164.811 C 336.220 165.038,336.096 165.223,335.945 165.223 C 335.794 165.223,335.670 165.038,335.670 164.811 C 335.670 164.584,335.546 164.399,335.395 164.399 C 335.244 164.399,335.120 164.584,335.120 164.811 C 335.120 165.038,334.997 165.223,334.845 165.223 C 334.694 165.223,334.570 165.038,334.570 164.811 C 334.570 164.584,334.447 164.399,334.296 164.399 C 334.144 164.399,334.021 164.584,334.021 164.811 C 334.021 165.038,333.835 165.223,333.608 165.223 C 333.381 165.223,333.196 165.038,333.196 164.811 C 333.196 164.584,333.072 164.399,332.921 164.399 C 332.770 164.399,332.646 164.584,332.646 164.811 C 332.646 165.038,332.522 165.223,332.371 165.223 C 332.220 165.223,332.096 165.038,332.096 164.811 C 332.096 164.584,331.973 164.399,331.821 164.399 C 331.670 164.399,331.546 164.584,331.546 164.811 C 331.546 165.038,331.361 165.223,331.134 165.223 C 330.907 165.223,330.722 165.038,330.722 164.811 C 330.722 164.584,330.598 164.399,330.447 164.399 C 330.296 164.399,330.172 164.584,330.172 164.811 C 330.172 165.038,330.048 165.223,329.897 165.223 C 329.746 165.223,329.622 165.038,329.622 164.811 C 329.622 164.584,329.498 164.399,329.347 164.399 C 329.196 164.399,329.072 164.584,329.072 164.811 C 329.072 165.038,328.948 165.223,328.797 165.223 C 328.646 165.223,328.522 165.038,328.522 164.811 C 328.522 164.584,328.337 164.399,328.110 164.399 C 327.883 164.399,327.698 164.584,327.698 164.811 C 327.698 165.038,327.574 165.223,327.423 165.223 C 327.271 165.223,327.148 165.038,327.148 164.811 C 327.148 164.584,327.024 164.399,326.873 164.399 C 326.722 164.399,326.598 164.584,326.598 164.811 C 326.598 165.038,326.474 165.223,326.323 165.223 C 326.172 165.223,326.048 165.038,326.048 164.811 C 326.048 163.728,325.493 164.563,325.454 165.704 C 325.420 166.708,325.385 166.804,325.299 166.117 C 325.238 165.625,325.073 165.223,324.931 165.223 C 324.789 165.223,324.674 165.038,324.674 164.811 C 324.674 164.584,324.550 164.399,324.399 164.399 C 324.247 164.399,324.124 164.584,324.124 164.811 C 324.124 165.038,324.000 165.223,323.849 165.223 C 323.698 165.223,323.574 165.038,323.574 164.811 C 323.574 164.584,323.450 164.399,323.299 164.399 C 323.148 164.399,323.024 164.584,323.024 164.811 C 323.024 165.038,322.838 165.223,322.612 165.223 C 322.385 165.223,322.199 165.038,322.199 164.811 C 322.199 164.584,322.076 164.399,321.924 164.399 C 321.773 164.399,321.649 164.584,321.649 164.811 C 321.649 165.038,321.526 165.223,321.375 165.223 C 321.223 165.223,321.100 165.038,321.100 164.811 C 321.100 164.584,320.976 164.399,320.825 164.399 C 320.674 164.399,320.550 164.584,320.550 164.811 C 320.550 165.038,320.434 165.223,320.292 165.223 C 320.151 165.223,319.985 165.625,319.924 166.117 C 319.839 166.804,319.803 166.708,319.769 165.704 C 319.731 164.563,319.175 163.728,319.175 164.811 C 319.175 165.038,319.052 165.223,318.900 165.223 C 318.749 165.223,318.625 165.038,318.625 164.811 C 318.625 164.584,318.502 164.399,318.351 164.399 C 318.199 164.399,318.076 164.584,318.076 164.811 C 318.076 165.038,317.952 165.223,317.801 165.223 C 317.649 165.223,317.526 165.038,317.526 164.811 C 317.526 164.584,317.340 164.399,317.113 164.399 C 316.887 164.399,316.701 164.584,316.701 164.811 C 316.701 165.038,316.577 165.223,316.426 165.223 C 316.275 165.223,316.151 165.038,316.151 164.811 C 316.151 164.584,316.027 164.399,315.876 164.399 C 315.725 164.399,315.601 164.584,315.601 164.811 C 315.601 165.038,315.478 165.223,315.326 165.223 C 315.175 165.223,315.052 165.038,315.052 164.811 C 315.052 163.728,314.496 164.563,314.458 165.704 C 314.424 166.708,314.388 166.804,314.303 166.117 C 314.242 165.625,314.076 165.223,313.934 165.223 C 313.793 165.223,313.677 165.038,313.677 164.811 C 313.677 164.584,313.553 164.399,313.402 164.399 C 313.251 164.399,313.127 164.584,313.127 164.811 C 313.127 165.038,313.003 165.223,312.852 165.223 C 312.701 165.223,312.577 165.038,312.577 164.811 C 312.577 164.584,312.454 164.399,312.302 164.399 C 312.151 164.399,312.027 164.584,312.027 164.811 C 312.027 165.038,311.842 165.223,311.615 165.223 C 311.388 165.223,311.203 165.038,311.203 164.811 C 311.203 164.584,311.079 164.399,310.928 164.399 C 310.777 164.399,310.653 164.584,310.653 164.811 C 310.653 165.382,310.171 165.330,310.018 164.742 C 309.949 164.478,309.878 166.316,309.860 168.827 M398.007 165.517 C 397.440 165.816,396.976 166.123,396.976 166.198 C 396.976 166.273,397.463 166.086,398.059 165.782 L 399.142 165.229 399.250 166.257 L 399.358 167.285 399.404 166.117 C 399.456 164.790,399.417 164.773,398.007 165.517 M391.959 168.540 C 391.089 168.989,390.378 169.418,390.378 169.493 C 390.378 169.568,391.120 169.255,392.027 168.797 C 392.935 168.339,393.677 167.905,393.677 167.831 C 393.677 167.648,393.728 167.627,391.959 168.540 M385.636 171.704 C 384.608 172.261,384.671 172.493,385.704 171.959 C 386.158 171.724,386.529 171.474,386.529 171.402 C 386.529 171.225,386.500 171.235,385.636 171.704 M0.000 237.801 C 0.000 243.666,0.017 243.849,0.550 243.849 C 1.083 243.849,1.100 243.666,1.100 237.801 C 1.100 231.936,1.083 231.753,0.550 231.753 C 0.017 231.753,0.000 231.936,0.000 237.801 M77.882 273.744 C 79.061 273.796,80.916 273.795,82.006 273.743 C 83.095 273.691,82.131 273.649,79.863 273.649 C 77.595 273.650,76.703 273.692,77.882 273.744 M104.952 273.734 C 105.294 273.800,105.788 273.797,106.051 273.728 C 106.314 273.660,106.034 273.606,105.430 273.609 C 104.825 273.612,104.610 273.668,104.952 273.734 M110.295 273.744 C 111.611 273.794,113.838 273.795,115.244 273.745 C 116.650 273.695,115.574 273.653,112.852 273.653 C 110.131 273.653,108.980 273.694,110.295 273.744 M153.333 273.746 C 172.876 273.785,204.856 273.785,224.399 273.746 C 243.942 273.707,227.952 273.675,188.866 273.675 C 149.780 273.675,133.790 273.707,153.333 273.746 M368.158 273.746 C 373.855 273.787,383.257 273.787,389.052 273.746 C 394.847 273.704,390.186 273.670,378.694 273.670 C 367.203 273.670,362.462 273.704,368.158 273.746 " stroke="none" fill="#d1cbfb" fill-rule="evenodd"></path><path id="path6" d="M14.936 6.451 C 13.284 7.165,12.978 8.896,14.274 10.193 C 16.418 12.337,19.757 9.416,17.691 7.204 C 16.709 6.154,16.044 5.972,14.936 6.451 M23.486 9.003 C 24.010 11.234,26.757 11.603,27.617 9.558 C 28.138 8.319,28.023 8.247,25.521 8.247 L 23.308 8.247 23.486 9.003 " stroke="none" fill="#f6ab89" fill-rule="evenodd"></path><path id="path7" d="M399.450 9.347 L 399.450 18.695 200.275 18.626 C 90.729 18.588,1.100 18.649,1.100 18.763 C 1.100 18.876,90.729 18.969,200.275 18.969 L 399.450 18.969 399.450 75.601 C 399.450 115.502,399.364 132.234,399.157 132.234 C 398.996 132.234,398.594 132.103,398.264 131.944 C 397.684 131.663,397.681 131.668,398.197 132.081 C 398.490 132.316,398.831 132.509,398.953 132.509 C 399.075 132.509,399.175 133.251,399.175 134.158 C 399.175 135.074,399.053 135.808,398.900 135.808 C 398.749 135.808,398.625 135.684,398.625 135.533 C 398.625 135.381,398.378 135.258,398.076 135.258 C 397.770 135.258,397.526 135.074,397.526 134.845 C 397.526 134.589,397.266 134.433,396.838 134.433 C 396.460 134.433,396.151 134.309,396.151 134.158 C 396.151 134.007,395.957 133.883,395.719 133.883 C 395.180 133.883,394.603 133.323,394.426 132.627 C 394.308 132.166,394.286 132.178,394.259 132.715 C 394.228 133.305,393.677 133.631,393.677 133.058 C 393.677 132.907,393.430 132.784,393.127 132.784 C 392.825 132.784,392.577 132.660,392.577 132.509 C 392.577 132.357,392.268 132.234,391.890 132.234 C 391.462 132.234,391.203 132.078,391.203 131.821 C 391.203 131.592,390.958 131.409,390.653 131.409 C 390.351 131.409,390.103 131.285,390.103 131.134 C 390.103 130.983,389.856 130.859,389.553 130.859 C 389.173 130.859,388.997 130.669,388.982 130.241 C 388.970 129.900,388.898 129.777,388.821 129.966 C 388.657 130.373,387.629 130.432,387.629 130.034 C 387.629 129.883,387.381 129.759,387.079 129.759 C 386.774 129.759,386.529 129.576,386.529 129.347 C 386.529 129.090,386.270 128.935,385.842 128.935 C 385.464 128.935,385.155 128.811,385.155 128.660 C 385.155 128.509,384.935 128.385,384.666 128.385 C 384.396 128.385,384.000 128.140,383.784 127.841 C 383.491 127.434,383.332 127.382,383.153 127.635 C 382.964 127.901,382.884 127.900,382.774 127.629 C 382.697 127.440,382.397 127.285,382.108 127.285 C 381.818 127.285,381.581 127.162,381.581 127.010 C 381.581 126.859,381.271 126.735,380.893 126.735 C 380.466 126.735,380.206 126.580,380.206 126.323 C 380.206 126.094,379.962 125.911,379.656 125.911 C 379.354 125.911,379.107 125.787,379.107 125.636 C 379.107 125.485,378.859 125.361,378.557 125.361 C 378.176 125.361,378.000 125.170,377.985 124.742 C 377.973 124.402,377.901 124.278,377.825 124.467 C 377.660 124.875,376.632 124.934,376.632 124.536 C 376.632 124.385,376.385 124.261,376.082 124.261 C 375.777 124.261,375.533 124.078,375.533 123.849 C 375.533 123.592,375.273 123.436,374.845 123.436 C 374.467 123.436,374.158 123.313,374.158 123.162 C 374.158 123.010,373.964 122.887,373.726 122.887 C 373.187 122.887,372.610 122.326,372.433 121.630 C 372.315 121.170,372.293 121.181,372.266 121.718 C 372.235 122.308,371.684 122.634,371.684 122.062 C 371.684 121.911,371.436 121.787,371.134 121.787 C 370.832 121.787,370.584 121.663,370.584 121.512 C 370.584 121.361,370.275 121.237,369.897 121.237 C 369.469 121.237,369.210 121.081,369.210 120.825 C 369.210 120.596,368.965 120.412,368.660 120.412 C 367.803 120.412,368.014 119.694,368.990 119.290 C 370.875 118.509,371.595 118.765,381.412 123.705 C 386.539 126.284,390.791 128.338,390.861 128.268 C 391.279 127.851,372.034 118.666,370.722 118.656 C 369.472 118.647,368.434 119.112,359.313 123.766 C 353.794 126.581,347.299 129.893,344.880 131.126 C 335.858 135.724,329.370 139.247,329.765 139.333 C 329.989 139.382,330.172 139.536,330.172 139.677 C 330.172 139.817,330.481 139.931,330.859 139.931 C 331.287 139.931,331.546 140.087,331.546 140.344 C 331.546 140.573,331.791 140.756,332.096 140.756 C 332.399 140.756,332.646 140.880,332.646 141.031 C 332.646 141.182,332.955 141.306,333.333 141.306 C 333.711 141.306,334.021 141.430,334.021 141.581 C 334.021 141.732,334.268 141.856,334.570 141.856 C 334.873 141.856,335.120 141.979,335.120 142.131 C 335.120 142.282,335.368 142.405,335.670 142.405 C 335.976 142.405,336.220 142.589,336.220 142.818 C 336.220 143.074,336.480 143.230,336.907 143.230 C 337.285 143.230,337.595 143.354,337.595 143.505 C 337.595 143.656,337.842 143.780,338.144 143.780 C 338.447 143.780,338.694 143.904,338.694 144.055 C 338.694 144.206,339.003 144.330,339.381 144.330 C 339.759 144.330,340.069 144.454,340.069 144.605 C 340.069 144.756,340.316 144.880,340.619 144.880 C 340.921 144.880,341.168 145.003,341.168 145.155 C 341.168 145.306,341.756 145.446,342.474 145.467 C 343.192 145.488,343.502 145.558,343.162 145.624 C 342.395 145.771,342.343 146.254,343.093 146.254 C 343.395 146.254,343.643 146.378,343.643 146.529 C 343.643 146.680,343.952 146.804,344.330 146.804 C 344.708 146.804,345.017 146.928,345.017 147.079 C 345.017 147.230,345.265 147.354,345.567 147.354 C 345.869 147.354,346.117 147.478,346.117 147.629 C 346.117 147.780,346.364 147.904,346.667 147.904 C 346.972 147.904,347.216 148.087,347.216 148.316 C 347.216 148.573,347.476 148.729,347.904 148.729 C 348.282 148.729,348.591 148.852,348.591 149.003 C 348.591 149.155,348.838 149.278,349.141 149.278 C 349.443 149.278,349.691 149.402,349.691 149.553 C 349.691 149.704,350.000 149.828,350.378 149.828 C 350.756 149.828,351.065 149.952,351.065 150.103 C 351.065 150.254,351.313 150.378,351.615 150.378 C 351.918 150.378,352.165 150.502,352.165 150.653 C 352.165 150.804,352.474 150.928,352.852 150.928 C 353.280 150.928,353.540 151.084,353.540 151.340 C 353.540 151.569,353.784 151.753,354.089 151.753 C 354.392 151.753,354.639 151.876,354.639 152.027 C 354.639 152.179,354.948 152.302,355.326 152.302 C 355.704 152.302,356.014 152.426,356.014 152.577 C 356.014 152.729,356.261 152.852,356.564 152.852 C 356.866 152.852,357.113 152.976,357.113 153.127 C 357.113 153.278,357.361 153.402,357.663 153.402 C 357.969 153.402,358.213 153.585,358.213 153.814 C 358.213 154.071,358.473 154.227,358.900 154.227 C 359.278 154.227,359.588 154.351,359.588 154.502 C 359.588 154.653,359.835 154.777,360.137 154.777 C 360.440 154.777,360.687 154.900,360.687 155.052 C 360.687 155.624,361.239 155.298,361.269 154.708 C 361.297 154.171,361.319 154.159,361.436 154.620 C 361.614 155.316,362.190 155.876,362.730 155.876 C 362.967 155.876,363.162 156.000,363.162 156.151 C 363.162 156.302,363.749 156.443,364.467 156.464 C 365.186 156.484,365.495 156.555,365.155 156.620 C 364.388 156.768,364.336 157.251,365.086 157.251 C 365.388 157.251,365.636 157.375,365.636 157.526 C 365.636 157.924,366.664 157.864,366.828 157.457 C 366.905 157.268,366.977 157.392,366.989 157.732 C 367.004 158.160,367.180 158.351,367.560 158.351 C 367.863 158.351,368.110 158.474,368.110 158.625 C 368.110 158.777,368.357 158.900,368.660 158.900 C 368.965 158.900,369.210 159.084,369.210 159.313 C 369.210 159.569,369.469 159.725,369.897 159.725 C 370.275 159.725,370.584 159.849,370.584 160.000 C 370.584 160.151,370.832 160.275,371.134 160.275 C 371.436 160.275,371.684 160.399,371.684 160.550 C 371.684 161.122,372.235 160.796,372.266 160.206 C 372.293 159.669,372.315 159.658,372.433 160.118 C 372.610 160.814,373.187 161.375,373.726 161.375 C 373.964 161.375,374.158 161.498,374.158 161.649 C 374.158 161.801,374.467 161.924,374.845 161.924 C 375.273 161.924,375.533 162.080,375.533 162.337 C 375.533 162.566,375.777 162.749,376.082 162.749 C 376.385 162.749,376.632 162.873,376.632 163.024 C 376.632 163.422,377.660 163.363,377.825 162.955 C 377.901 162.766,377.973 162.890,377.985 163.230 C 378.000 163.658,378.176 163.849,378.557 163.849 C 378.859 163.849,379.107 163.973,379.107 164.124 C 379.107 164.275,379.354 164.399,379.656 164.399 C 379.962 164.399,380.206 164.582,380.206 164.811 C 380.206 165.068,380.466 165.223,380.893 165.223 C 381.271 165.223,381.581 165.347,381.581 165.498 C 381.581 165.649,381.828 165.773,382.131 165.773 C 382.433 165.773,382.680 165.897,382.680 166.048 C 382.680 166.620,383.232 166.295,383.262 165.704 C 383.290 165.168,383.312 165.156,383.429 165.616 C 383.607 166.313,384.183 166.873,384.723 166.873 C 384.960 166.873,385.155 166.997,385.155 167.148 C 385.155 167.299,385.619 167.432,386.186 167.444 C 386.753 167.456,387.062 167.528,386.873 167.605 C 386.334 167.822,386.471 168.247,387.079 168.247 C 387.381 168.247,387.629 168.371,387.629 168.522 C 387.629 168.920,388.657 168.861,388.821 168.454 C 388.898 168.265,388.970 168.388,388.982 168.729 C 388.994 169.069,389.158 169.352,389.347 169.358 C 389.536 169.364,389.351 169.554,388.935 169.779 C 388.519 170.005,388.179 170.248,388.179 170.319 C 388.179 170.391,390.652 169.212,393.674 167.699 C 396.697 166.186,399.235 164.948,399.315 164.948 C 399.395 164.948,399.456 170.485,399.450 177.251 C 399.393 243.367,399.481 274.914,399.725 274.914 C 399.908 274.914,400.000 228.912,400.000 137.457 C 400.000 46.002,399.908 0.000,399.725 0.000 C 399.547 0.000,399.450 3.299,399.450 9.347 M215.540 94.837 C 215.771 94.970,216.761 95.146,217.740 95.229 C 219.098 95.343,219.259 95.324,218.419 95.148 C 216.376 94.721,215.101 94.583,215.540 94.837 M220.344 95.670 C 220.797 95.786,221.601 95.880,222.131 95.881 L 223.093 95.882 221.993 95.654 C 220.512 95.348,219.130 95.361,220.344 95.670 M226.667 96.641 C 231.477 97.509,233.197 97.891,233.032 98.056 C 232.956 98.132,233.069 98.691,233.284 99.298 C 233.498 99.905,233.606 100.511,233.523 100.645 C 233.441 100.778,233.556 100.817,233.779 100.732 C 234.096 100.610,234.168 100.784,234.109 101.533 C 234.056 102.194,234.190 102.625,234.542 102.926 C 234.822 103.166,235.052 103.580,235.053 103.846 C 235.054 104.112,235.248 104.701,235.485 105.155 C 235.721 105.608,235.951 106.379,235.995 106.867 C 236.038 107.355,236.220 107.930,236.397 108.144 C 236.575 108.358,236.690 108.639,236.652 108.768 C 236.615 108.898,236.740 109.284,236.930 109.628 C 237.121 109.971,237.209 110.360,237.128 110.492 C 237.046 110.625,237.170 110.806,237.403 110.895 C 237.636 110.985,237.801 111.214,237.770 111.405 C 237.712 111.767,237.947 112.532,238.352 113.299 C 238.482 113.545,238.674 114.226,238.780 114.812 C 238.886 115.397,239.090 116.026,239.235 116.208 C 239.379 116.390,239.423 116.660,239.332 116.807 C 239.241 116.955,239.292 117.153,239.446 117.248 C 239.599 117.343,239.725 117.710,239.725 118.062 C 239.725 118.415,239.901 118.772,240.117 118.854 C 240.332 118.937,240.717 119.444,240.972 119.982 C 241.227 120.519,241.824 121.310,242.299 121.739 C 242.773 122.168,247.453 126.839,252.699 132.119 L 262.236 141.718 262.529 140.031 C 263.469 134.633,263.824 130.179,263.338 129.879 C 263.221 129.806,263.043 129.203,262.943 128.538 C 262.844 127.873,262.512 127.060,262.206 126.732 C 261.900 126.403,261.649 125.839,261.649 125.478 C 261.649 125.117,261.502 124.699,261.321 124.549 C 261.140 124.399,261.028 123.828,261.071 123.281 C 261.133 122.485,261.065 122.317,260.732 122.445 C 260.485 122.540,260.387 122.489,260.490 122.322 C 260.587 122.165,260.552 121.889,260.413 121.706 C 260.273 121.524,260.007 120.663,259.820 119.794 C 259.598 118.766,259.342 118.213,259.087 118.213 C 258.736 118.213,258.551 117.676,258.673 117.010 C 258.697 116.878,258.554 116.569,258.356 116.323 C 258.157 116.077,258.010 115.509,258.029 115.060 C 258.048 114.612,257.897 114.077,257.692 113.872 C 257.487 113.668,257.320 113.207,257.320 112.849 C 257.320 112.491,257.196 112.121,257.045 112.027 C 256.893 111.934,256.770 111.617,256.770 111.324 C 256.770 111.030,256.659 110.790,256.525 110.790 C 256.275 110.790,255.810 109.470,255.910 109.043 C 255.940 108.914,255.859 108.666,255.729 108.493 C 255.600 108.320,255.327 107.622,255.122 106.942 C 254.917 106.261,254.648 105.587,254.523 105.443 C 254.398 105.300,254.296 104.789,254.296 104.308 C 254.296 103.744,254.101 103.301,253.745 103.058 C 253.424 102.837,253.155 102.289,253.098 101.739 C 253.027 101.055,252.858 100.784,252.479 100.749 C 252.193 100.722,250.351 100.374,248.385 99.976 C 246.419 99.577,242.027 98.807,238.625 98.265 C 235.223 97.723,230.584 96.982,228.316 96.620 C 223.065 95.780,221.974 95.795,226.667 96.641 M392.852 129.340 C 392.852 129.503,396.590 131.410,396.900 131.406 C 397.184 131.401,394.874 130.068,393.746 129.585 C 393.254 129.374,392.852 129.264,392.852 129.340 M221.625 139.107 C 221.619 139.485,221.780 140.598,221.983 141.581 C 222.186 142.564,222.356 143.058,222.362 142.680 C 222.367 142.302,222.206 141.189,222.003 140.206 C 221.800 139.223,221.630 138.729,221.625 139.107 M222.453 144.055 C 222.444 144.433,222.540 145.237,222.665 145.842 C 222.811 146.547,222.898 146.695,222.908 146.254 C 222.917 145.876,222.821 145.072,222.696 144.467 C 222.550 143.762,222.463 143.614,222.453 144.055 M222.955 147.288 C 222.955 147.604,223.703 148.454,223.980 148.454 C 224.068 148.454,223.906 148.175,223.619 147.835 C 223.333 147.495,223.066 147.165,223.027 147.102 C 222.988 147.039,222.955 147.123,222.955 147.288 M226.873 148.093 C 227.137 148.162,227.570 148.162,227.835 148.093 C 228.100 148.024,227.883 147.968,227.354 147.968 C 226.825 147.968,226.608 148.024,226.873 148.093 M309.553 161.222 C 309.553 167.941,309.646 173.496,309.759 173.566 C 309.873 173.636,309.932 168.264,309.891 161.628 L 309.817 149.563 310.469 149.810 C 310.827 149.947,312.884 150.942,315.040 152.022 C 317.195 153.101,319.002 153.942,319.054 153.890 C 319.107 153.837,316.990 152.717,314.351 151.400 L 309.553 149.005 309.553 161.222 M319.450 154.088 C 319.450 154.272,323.332 156.209,323.455 156.087 C 323.510 156.032,322.631 155.530,321.502 154.972 C 320.374 154.413,319.450 154.016,319.450 154.088 M324.948 156.836 C 324.948 156.988,326.848 157.976,327.913 158.378 C 328.406 158.564,328.567 158.566,328.385 158.383 C 328.056 158.050,324.948 156.652,324.948 156.836 M331.438 160.120 C 332.113 160.593,335.120 161.945,335.120 161.775 C 335.120 161.630,331.367 159.725,331.080 159.725 C 330.967 159.725,331.128 159.903,331.438 160.120 M336.518 162.579 C 336.798 162.837,340.619 164.666,340.619 164.543 C 340.619 164.389,336.892 162.474,336.593 162.474 C 336.489 162.474,336.455 162.522,336.518 162.579 M349.416 169.072 C 353.876 171.324,357.649 173.166,357.801 173.166 C 357.952 173.166,354.426 171.324,349.966 169.072 C 345.505 166.820,341.732 164.978,341.581 164.978 C 341.430 164.978,344.955 166.820,349.416 169.072 M384.261 172.114 C 383.392 172.563,382.680 172.991,382.680 173.067 C 382.680 173.190,385.952 171.632,386.231 171.376 C 386.591 171.047,385.634 171.405,384.261 172.114 M358.213 173.332 C 358.213 173.515,363.195 176.003,363.317 175.881 C 363.371 175.828,362.244 175.202,360.814 174.491 C 359.383 173.781,358.213 173.259,358.213 173.332 M378.763 174.864 C 378.196 175.163,377.732 175.470,377.732 175.545 C 377.732 175.667,379.903 174.652,380.183 174.399 C 380.500 174.113,379.674 174.383,378.763 174.864 M364.811 176.631 C 364.811 176.815,368.143 178.477,368.266 178.354 C 368.322 178.299,367.567 177.859,366.589 177.377 C 365.611 176.895,364.811 176.559,364.811 176.631 M372.990 177.752 C 371.924 178.330,372.045 178.530,373.127 177.979 C 374.163 177.452,374.347 177.315,373.998 177.331 C 373.859 177.337,373.405 177.526,372.990 177.752 M321.924 179.654 C 321.924 179.842,323.608 180.676,323.733 180.551 C 323.793 180.491,323.410 180.236,322.883 179.985 C 322.356 179.734,321.924 179.584,321.924 179.654 M327.423 182.403 C 327.423 182.591,329.106 183.426,329.232 183.300 C 329.291 183.240,328.909 182.986,328.381 182.734 C 327.854 182.483,327.423 182.334,327.423 182.403 M332.921 185.153 C 332.921 185.339,335.154 186.450,335.278 186.325 C 335.336 186.268,334.829 185.951,334.152 185.622 C 333.475 185.293,332.921 185.082,332.921 185.153 M338.419 187.902 C 338.419 188.088,340.652 189.199,340.777 189.074 C 340.834 189.017,340.327 188.701,339.650 188.372 C 338.973 188.043,338.419 187.831,338.419 187.902 M343.368 190.376 C 343.368 190.562,345.601 191.673,345.725 191.549 C 345.783 191.491,345.276 191.175,344.599 190.846 C 343.922 190.517,343.368 190.305,343.368 190.376 M1.230 237.801 C 1.230 249.368,1.264 254.100,1.306 248.316 C 1.347 242.533,1.347 233.069,1.306 227.285 C 1.264 221.502,1.230 226.234,1.230 237.801 M306.582 268.423 C 305.175 268.601,303.938 268.867,303.833 269.013 C 303.472 269.516,301.560 270.241,300.591 270.241 C 299.641 270.241,296.247 272.971,296.671 273.394 C 296.753 273.477,302.347 273.513,309.101 273.474 L 321.380 273.402 320.769 272.542 C 319.993 271.450,318.098 270.241,317.163 270.241 C 316.467 270.241,314.513 269.475,314.220 269.087 C 314.141 268.982,313.213 268.759,312.158 268.592 C 311.103 268.425,309.993 268.245,309.691 268.193 C 309.388 268.141,307.989 268.244,306.582 268.423 " stroke="none" fill="#e4dcfc" fill-rule="evenodd"></path><path id="path8" d="M24.498 6.432 C 23.093 7.211,22.712 8.918,23.711 9.964 C 24.052 10.320,24.185 10.420,24.008 10.185 C 23.830 9.951,23.598 9.410,23.491 8.982 L 23.297 8.205 25.670 8.295 C 28.386 8.398,28.730 8.051,27.195 6.760 C 26.262 5.974,25.492 5.881,24.498 6.432 M27.434 9.837 L 26.963 10.859 27.502 10.210 C 27.799 9.853,28.041 9.389,28.041 9.179 C 28.041 8.614,27.952 8.710,27.434 9.837 " stroke="none" fill="#fce1b9" fill-rule="evenodd"></path></g></svg>